<?xml version="1.0" encoding="UTF-8" ?>
<!DOCTYPE svg PUBLIC "-//W3C//DTD SVG 1.1//EN" "http://www.w3.org/Graphics/SVG/1.1/DTD/svg11.dtd">
<svg width="780pt" height="192pt" viewBox="0 0 780 192" version="1.1" xmlns="http://www.w3.org/2000/svg">
<g id="#38b4feff">
<path fill="#38b4fe" opacity="1.00" d=" M 0.00 0.00 L 0.65 0.00 C 0.49 0.16 0.16 0.49 0.00 0.65 L 0.00 0.00 Z" />
<path fill="#38b4fe" opacity="1.00" d=" M 632.00 0.00 L 643.00 0.00 C 643.00 18.33 643.00 36.67 643.00 55.00 C 639.30 54.99 635.68 55.03 632.00 54.99 C 632.00 36.66 632.00 18.33 632.00 0.00 Z" />
<path fill="#38b4fe" opacity="1.00" d=" M 0.00 55.00 C 3.67 55.00 7.33 54.99 11.00 55.01 C 11.00 91.67 11.00 128.33 11.00 164.98 C 7.33 165.03 3.67 164.99 0.00 165.00 L 0.00 55.00 Z" />
<path fill="#38b4fe" opacity="1.00" d=" M 110.05 55.02 C 112.79 55.02 118.26 55.03 121.00 55.03 C 121.00 82.34 121.00 109.65 121.00 136.96 C 118.26 136.96 112.78 136.97 110.03 136.98 C 109.99 109.66 109.95 82.34 110.05 55.02 Z" />
<path fill="#38b4fe" opacity="1.00" d=" M 165.03 55.02 C 167.78 55.02 173.26 55.03 176.00 55.03 C 176.00 91.68 176.00 128.32 176.00 164.96 C 173.26 164.96 167.78 164.97 165.03 164.98 C 164.97 128.33 164.97 91.67 165.03 55.02 Z" />
<path fill="#38b4fe" opacity="1.00" d=" M 275.03 55.04 C 278.33 55.02 281.69 54.87 285.00 55.05 C 285.00 73.36 285.00 91.66 285.00 109.96 C 281.66 110.05 278.35 110.11 275.03 109.94 C 274.97 91.64 274.97 73.34 275.03 55.04 Z" />
<path fill="#38b4fe" opacity="1.00" d=" M 385.05 55.03 C 388.33 55.02 391.70 54.87 395.00 55.05 C 395.00 82.35 395.00 109.65 395.00 136.95 C 391.65 137.04 388.36 137.12 385.03 136.94 C 384.99 109.64 384.95 82.33 385.05 55.03 Z" />
<path fill="#38b4fe" opacity="1.00" d=" M 522.05 55.02 C 524.79 55.02 530.26 55.03 533.00 55.03 C 533.00 82.34 533.00 109.65 533.00 136.96 C 530.26 136.96 524.78 136.97 522.03 136.98 C 521.98 109.66 521.95 82.34 522.05 55.02 Z" />
<path fill="#38b4fe" opacity="1.00" d=" M 604.06 55.05 C 606.79 55.04 612.26 55.01 615.00 55.00 C 615.00 82.33 615.00 109.67 615.00 137.00 C 611.30 136.99 607.68 137.03 604.00 136.99 C 604.05 109.67 603.90 82.36 604.06 55.05 Z" />
<path fill="#38b4fe" opacity="1.00" d=" M 687.06 55.05 C 689.79 55.04 695.26 55.01 698.00 55.00 C 698.00 82.33 698.00 109.67 698.00 137.00 C 695.27 136.99 689.80 136.97 687.06 136.96 C 686.93 109.66 686.96 82.35 687.06 55.05 Z" />
<path fill="#38b4fe" opacity="1.00" d=" M 55.00 82.04 C 57.74 82.04 63.22 82.03 65.97 82.02 C 65.97 91.34 66.15 100.66 65.94 109.98 C 63.21 109.98 57.74 109.97 55.00 109.96 C 55.00 100.66 55.00 91.35 55.00 82.04 Z" />
<path fill="#38b4fe" opacity="1.00" d=" M 220.00 82.04 C 222.74 82.04 228.22 82.03 230.97 82.02 C 230.97 91.34 231.15 100.66 230.94 109.98 C 228.21 109.98 222.74 109.97 220.00 109.96 C 220.00 100.66 220.00 91.35 220.00 82.04 Z" />
<path fill="#38b4fe" opacity="1.00" d=" M 742.00 82.04 C 744.74 82.04 750.22 82.03 752.97 82.02 C 752.96 91.34 753.14 100.66 752.94 109.98 C 750.21 109.98 744.74 109.97 742.00 109.96 C 741.99 100.66 741.99 91.35 742.00 82.04 Z" />
<path fill="#38b4fe" opacity="1.00" d=" M 302.03 110.01 C 305.68 109.96 309.31 110.00 312.97 110.01 C 313.01 118.99 313.00 127.97 313.00 136.95 C 310.26 136.96 304.78 136.97 302.03 136.98 C 301.98 127.99 301.91 119.00 302.03 110.01 Z" />
<path fill="#38b4fe" opacity="1.00" d=" M 577.06 137.05 C 579.79 137.04 585.26 137.01 588.00 137.00 C 588.00 155.33 588.00 173.67 588.00 192.00 L 577.00 192.00 C 577.05 173.68 576.89 155.36 577.06 137.05 Z" />
</g>
<g id="#0077d3fe">
<path fill="#0077d3" opacity="1.00" d=" M 643.00 0.00 L 670.00 0.00 C 669.87 18.32 670.21 36.64 669.91 54.95 C 660.93 55.11 651.96 54.97 643.00 55.00 C 643.00 36.67 643.00 18.33 643.00 0.00 Z" />
<path fill="#0077d3" opacity="1.00" d=" M 11.00 55.01 C 38.31 55.02 65.62 54.93 92.94 55.05 C 93.06 82.34 93.03 109.64 92.94 136.94 C 74.66 137.17 56.37 136.84 38.08 137.05 C 37.72 146.34 38.24 155.65 37.96 164.95 C 28.97 165.12 19.99 164.98 11.00 164.98 C 11.00 128.33 11.00 91.67 11.00 55.01 M 38.06 82.03 C 37.85 91.34 38.03 100.65 38.03 109.96 C 43.68 110.07 49.34 110.07 55.00 109.96 C 57.74 109.97 63.21 109.98 65.94 109.98 C 66.15 100.66 65.97 91.34 65.97 82.02 C 63.22 82.03 57.74 82.04 55.00 82.04 C 49.35 81.85 43.70 81.99 38.06 82.03 Z" />
<path fill="#0077d3" opacity="1.00" d=" M 121.00 55.03 C 129.99 54.95 138.98 54.95 147.97 55.03 C 148.00 82.35 148.05 109.66 147.95 136.97 C 138.97 137.00 129.98 137.10 121.00 136.96 C 121.00 109.65 121.00 82.34 121.00 55.03 Z" />
<path fill="#0077d3" opacity="1.00" d=" M 176.00 55.03 C 203.32 54.97 230.65 54.97 257.97 55.03 C 258.00 82.35 258.05 109.66 257.95 136.97 C 239.65 137.10 221.34 136.90 203.03 137.03 C 202.82 146.34 203.21 155.66 202.94 164.97 C 193.96 165.00 184.98 165.10 176.00 164.96 C 176.00 128.32 176.00 91.68 176.00 55.03 M 203.06 82.03 C 202.85 91.34 203.03 100.65 203.03 109.96 C 208.68 110.07 214.34 110.07 220.00 109.96 C 222.74 109.97 228.21 109.98 230.94 109.98 C 231.15 100.66 230.97 91.34 230.97 82.02 C 228.22 82.03 222.74 82.04 220.00 82.04 C 214.35 81.85 208.70 81.99 203.06 82.03 Z" />
<path fill="#0077d3" opacity="1.00" d=" M 285.00 55.05 C 312.65 54.96 340.31 54.97 367.97 55.05 C 368.00 64.02 368.11 73.00 367.95 81.97 C 349.64 82.10 331.34 81.90 313.03 82.03 C 312.84 91.36 313.16 100.69 312.97 110.01 C 309.31 110.00 305.68 109.96 302.03 110.01 C 296.35 110.00 290.67 110.08 285.00 109.96 C 285.00 91.66 285.00 73.36 285.00 55.05 Z" />
<path fill="#0077d3" opacity="1.00" d=" M 395.00 55.05 C 413.32 54.99 431.65 54.91 449.97 55.06 C 450.00 64.03 450.10 73.00 449.95 81.97 C 440.97 82.15 432.00 81.83 423.03 82.05 C 422.90 100.35 423.10 118.66 422.97 136.97 C 413.64 136.98 404.32 137.14 395.00 136.95 C 395.00 109.65 395.00 82.35 395.00 55.05 Z" />
<path fill="#0077d3" opacity="1.00" d=" M 533.00 55.03 C 541.98 54.95 550.98 54.95 559.97 55.03 C 560.00 82.35 560.05 109.66 559.95 136.97 C 550.96 137.00 541.98 137.10 533.00 136.96 C 533.00 109.65 533.00 82.34 533.00 55.03 Z" />
<path fill="#0077d3" opacity="1.00" d=" M 615.00 55.00 C 620.65 54.98 626.32 55.02 632.00 54.99 C 635.68 55.03 639.30 54.99 643.00 55.00 C 642.95 82.31 643.08 109.62 642.95 136.94 C 633.63 137.19 624.31 136.91 615.00 137.00 C 615.00 109.67 615.00 82.33 615.00 55.00 Z" />
<path fill="#0077d3" opacity="1.00" d=" M 698.00 55.00 C 725.33 55.00 752.66 55.00 780.00 55.00 L 780.00 137.00 C 752.66 137.00 725.33 137.00 698.00 137.00 C 698.00 109.67 698.00 82.33 698.00 55.00 M 725.06 82.03 C 724.84 91.34 725.02 100.65 725.03 109.96 C 730.67 110.07 736.33 110.07 742.00 109.96 C 744.74 109.97 750.21 109.98 752.94 109.98 C 753.14 100.66 752.96 91.34 752.97 82.02 C 750.22 82.03 744.74 82.04 742.00 82.04 C 736.34 81.85 730.69 81.99 725.06 82.03 Z" />
<path fill="#0077d3" opacity="1.00" d=" M 312.97 110.01 C 331.30 110.04 349.64 109.89 367.97 110.06 C 368.00 119.03 368.10 128.00 367.95 136.97 C 349.63 136.98 331.31 137.09 313.00 136.95 C 313.00 127.97 313.01 118.99 312.97 110.01 Z" />
<path fill="#0077d3" opacity="1.00" d=" M 588.00 137.00 C 593.33 136.98 598.64 137.02 604.00 136.99 C 607.68 137.03 611.30 136.99 615.00 137.00 C 615.00 155.33 615.00 173.67 615.00 192.00 L 588.00 192.00 C 588.00 173.67 588.00 155.33 588.00 137.00 Z" />
</g>
</svg>
